<svg width="18" height="20" viewBox="0 0 18 20" fill="none" xmlns="http://www.w3.org/2000/svg">
<path d="M10.1918 6.33332C10.1918 4.3 8.5283 2.66664 6.4574 2.66664C4.38649 2.66664 2.72301 4.29996 2.72301 6.33332C2.72301 8.36668 4.38653 10 6.45744 10C8.49436 10 10.1918 8.36668 10.1918 6.33332ZM6.45744 9.33332C4.75998 9.33332 3.40204 8 3.40204 6.33332C3.40204 4.66664 4.75998 3.33332 6.45744 3.33332C8.12091 3.33332 9.51283 4.66664 9.51283 6.33332C9.51283 8 8.15489 9.33332 6.45744 9.33332Z" fill="black"/>
<path d="M6.45744 4C5.13344 4 4.08104 5.03332 4.08104 6.33332C4.08104 6.53332 4.21682 6.66664 4.42051 6.66664C4.59027 6.66664 4.75999 6.53332 4.75999 6.33332C4.75999 5.4 5.50685 4.66664 6.45744 4.66664C6.66113 4.66664 6.79692 4.53332 6.79692 4.33332C6.79692 4.13332 6.66113 4 6.45744 4Z" fill="black"/>
<path d="M17.6605 10.6667H14.9446C14.7409 10.6667 14.6051 10.8 14.6051 11V13.6667H11.8892V11C11.8892 10.8 11.7534 10.6667 11.5497 10.6667H11.4267L12.1948 9.13336C13.2132 7.16668 13.1114 4.86668 11.9232 3.00004C10.7349 1.1334 8.73198 0 6.45742 0C4.18287 0 2.1459 1.13332 0.957717 3C-0.196529 4.86668 -0.332351 7.16668 0.686113 9.13332L6.15188 19.8C6.21979 19.9333 6.32164 20 6.45742 20C6.55927 20 6.69505 19.9333 6.72903 19.8L8.49435 16.3577V19.6666C8.49435 19.8666 8.63013 20 8.83383 20H11.5497C11.7534 20 11.8892 19.8666 11.8892 19.6666V17H14.6051V19.6667C14.6051 19.8667 14.7409 20 14.9446 20H17.6605C17.8642 20 18 19.8667 18 19.6667V11C18 10.8 17.8642 10.6667 17.6605 10.6667ZM6.45742 18.9333L1.33117 8.83332C0.414549 7.06664 0.516396 5 1.5688 3.33332C2.62119 1.66664 4.42049 0.666641 6.45742 0.666641C8.46041 0.666641 10.2597 1.66664 11.346 3.33332C12.3984 5.03332 12.4664 7.06664 11.5837 8.83332L10.6331 10.6666H8.83383C8.63013 10.6666 8.49435 10.8 8.49435 11V14.9L6.45742 18.9333ZM17.321 19.3333H15.2841V16.6666C15.2841 16.4666 15.1483 16.3333 14.9446 16.3333H11.5497C11.346 16.3333 11.2103 16.4666 11.2103 16.6666V19.3333H9.17334V14.9667V11.3334H10.8708H11.2103V14C11.2103 14.2 11.346 14.3333 11.5497 14.3333H14.9446C15.1483 14.3333 15.2841 14.2 15.2841 14V11.3333H17.321V19.3333Z" fill="black"/>
</svg>
