<svg width="18" height="20" viewBox="0 0 18 20" fill="none" xmlns="http://www.w3.org/2000/svg">
<path d="M9.01264 8.63957e-05C8.95151 0.00114583 8.89145 0.018387 8.83724 0.0504334L0.602017 4.9393C0.538629 4.97702 0.485561 5.03369 0.448567 5.10316C0.411572 5.17263 0.392063 5.25225 0.392154 5.3334V6.66672C0.392164 6.78459 0.433483 6.89763 0.507024 6.98098C0.580565 7.06433 0.680305 7.11116 0.784307 7.11117H1.17646V7.73356C1.17646 8.27218 1.5154 8.73117 1.96077 8.85421V16.8941H0.823369L0.888473 16.9002C0.405331 16.808 0 17.2777 0 17.7917V19.013C0 19.5375 0.366292 20 0.823369 20H17.1766C17.6337 20 18 19.5722 18 19.0582V17.8368C18 17.3228 17.6337 16.8941 17.1766 16.8941H16.0783V8.85421C16.5237 8.73117 16.8626 8.27218 16.8626 7.73356V7.11117H17.2548C17.3588 7.11116 17.4585 7.06433 17.532 6.98098C17.6056 6.89763 17.6469 6.78459 17.6469 6.66672V5.3334C17.647 5.25225 17.6275 5.17263 17.5905 5.10316C17.5535 5.03369 17.5004 4.97702 17.437 4.9393L9.20182 0.0504334C9.14349 0.0159301 9.07843 -0.00138378 9.01264 8.63957e-05ZM9.01953 0.947131L16.8626 5.60249V6.22228H16.5363C16.494 6.21435 16.4508 6.21435 16.4084 6.22228H12.6094C12.5874 6.21811 12.5651 6.21608 12.5428 6.21621C12.5238 6.21667 12.5048 6.2187 12.4861 6.22228H11.0462C11.0038 6.21435 10.9606 6.21435 10.9183 6.22228H7.11927C7.09725 6.21811 7.07496 6.21608 7.05264 6.21621C7.03364 6.21667 7.0147 6.2187 6.99596 6.22228H5.55602C5.51367 6.21435 5.47046 6.21435 5.42811 6.22228H1.62912C1.6071 6.21811 1.58481 6.21608 1.56249 6.21621C1.54349 6.21667 1.52455 6.2187 1.50581 6.22228H1.17646V5.60249L9.01953 0.947131ZM1.96077 7.11117H5.098V7.73356C5.098 7.90311 5.01246 8.00005 4.86286 8.00005H2.19591C2.04631 8.00005 1.96077 7.90311 1.96077 7.73356V7.11117ZM5.8823 7.11117H6.66661V7.73356C6.66661 8.27218 7.00555 8.73117 7.45092 8.85421V16.8941H5.098V8.85421C5.54337 8.73117 5.8823 8.27218 5.8823 7.73356V7.11117ZM7.45092 7.11117H10.5881V7.73356C10.5881 7.90311 10.5026 8.00005 10.353 8.00005H7.68606C7.53646 8.00005 7.45092 7.90311 7.45092 7.73356V7.11117ZM11.3725 7.11117H12.1568V7.73356C12.1568 8.27218 12.4957 8.73117 12.9411 8.85421V16.8941H10.5881V8.85421C11.0335 8.73117 11.3725 8.27218 11.3725 7.73356V7.11117ZM12.9411 7.11117H16.0783V7.73356C16.0783 7.90311 15.9928 8.00005 15.8432 8.00005H13.1762C13.0266 8.00005 12.9411 7.90311 12.9411 7.73356V7.11117ZM2.74507 8.88894H4.31369V16.8889H2.74507V8.88894ZM8.23522 8.88894H9.80384V16.8889H8.23522V8.88894ZM13.7254 8.88894H15.294V16.8889H13.7254V8.88894ZM0.77818 17.7795C0.793171 17.7817 0.80826 17.7828 0.823369 17.783H17.1766C17.1901 17.783 17.2157 17.8077 17.2157 17.8368V19.0582C17.2157 19.0873 17.1901 19.1111 17.1766 19.1111H0.823369C0.809862 19.1111 0.784307 19.1214 0.784307 19.013V17.7917C0.784307 17.7814 0.780909 17.7812 0.77818 17.7795Z" fill="black"/>
</svg>
