<svg width="18" height="20" viewBox="0 0 18 20" fill="none" xmlns="http://www.w3.org/2000/svg">
<path d="M1.15826 0.0829566L7.7957 7.65114L5.00119 10.8386L1.15727 6.45569C0.416272 5.61052 0 4.46439 0 3.26932C0 2.07426 0.41726 0.928122 1.15826 0.0829566ZM11.0853 9.47755L10.2414 10.4398L17.2286 18.4068L15.8314 20L8.84413 12.0341L1.85689 20L0.459636 18.4068L9.68801 7.88437C9.10698 6.24274 9.70778 3.87888 11.2888 2.07387C13.2187 -0.125487 15.8778 -0.660679 17.2286 0.879548C18.5794 2.41978 18.1101 5.45178 16.1812 7.65114C14.5982 9.45615 12.525 10.1412 11.0853 9.47755Z" fill="black"/>
</svg>
